<svg version="1.1" id="Layer_1" xmlns="http://www.w3.org/2000/svg" xmlns:xlink="http://www.w3.org/1999/xlink" x="0px" y="0px"
	 width="100%" viewBox="0 0 228 248" enable-background="new 0 0 228 248" xml:space="preserve">
<path fill="#FEFFFF" opacity="1.000000" stroke="none" 
	d="
M127.000000,249.000000 
	C84.666672,249.000000 42.833340,249.000000 1.000006,249.000000 
	C1.000004,166.333344 1.000004,83.666679 1.000002,1.000017 
	C76.999992,1.000011 152.999985,1.000011 228.999969,1.000006 
	C228.999985,83.666649 228.999985,166.333298 229.000000,248.999969 
	C195.166672,249.000000 161.333328,249.000000 127.000000,249.000000 
M65.147949,124.805511 
	C68.300179,127.951401 71.452408,131.097290 74.905098,134.853607 
	C79.130363,139.310486 83.355629,143.767380 87.888275,148.833542 
	C92.222832,153.298630 96.557396,157.763702 101.162140,162.829346 
	C104.797218,166.542130 108.432289,170.254913 112.462448,174.503403 
	C113.714554,176.335663 114.966652,178.167923 116.218758,180.000183 
	C116.794106,179.584045 117.369461,179.167892 117.944817,178.751755 
	C122.047493,166.972153 126.150169,155.192551 130.799332,142.936569 
	C135.227539,130.932983 139.655731,118.929398 144.385498,106.108345 
	C138.499084,106.369652 133.733383,106.581215 128.048706,106.645378 
	C123.368454,106.710968 118.688202,106.776558 113.101524,106.650032 
	C109.402725,106.713959 105.703926,106.777885 101.095688,106.640411 
	C97.065926,106.705605 93.036171,106.770798 88.097580,106.630569 
	C84.068031,106.699821 80.038483,106.769081 75.118370,106.628754 
	C72.078613,106.698273 69.038849,106.767799 65.085693,106.613251 
	C59.770767,106.613251 54.455845,106.613251 49.140919,106.613251 
	C48.659706,107.433464 48.178493,108.253677 47.697277,109.073898 
	C53.442947,114.108994 59.188614,119.144089 65.147949,124.805511 
M200.144745,32.697922 
	C196.088623,32.594906 192.032501,32.491894 187.101089,32.143322 
	C184.067398,32.111374 181.033691,32.079430 177.189087,31.897299 
	C174.446777,31.874397 171.704483,31.851496 168.154205,31.677420 
	C165.768051,31.577797 163.381882,31.478174 160.091278,31.193792 
	C156.861160,31.193792 153.631027,31.193792 150.440063,31.193792 
	C150.440063,53.401180 150.440063,75.016205 150.440063,97.770912 
	C154.910339,93.456451 158.661301,89.836235 162.968094,85.897667 
	C165.367462,83.417740 167.766815,80.937820 170.783447,78.137863 
	C173.598404,75.463715 176.413345,72.789566 179.814087,69.822678 
	C183.008865,66.621826 186.203644,63.420971 189.983795,59.956902 
	C194.070129,56.009060 198.156464,52.061218 202.827133,47.819073 
	C207.611877,43.201653 212.396637,38.584236 217.181381,33.966820 
	C216.930252,33.590027 216.679138,33.213238 216.428009,32.836449 
	C211.290253,32.836449 206.152512,32.836449 200.144745,32.697922 
M104.904213,101.116852 
	C108.601570,101.058754 112.298935,101.000648 116.903923,101.119423 
	C120.601974,101.061302 124.300026,101.003181 128.885666,101.114281 
	C131.589691,101.058731 134.293701,101.003181 137.898560,101.115570 
	C140.161362,101.115570 142.424149,101.115570 144.815109,101.115570 
	C144.815109,79.156403 144.815109,57.752640 144.815109,34.889336 
	C141.319504,38.932037 138.672119,41.993748 135.409927,45.314205 
	C132.574600,48.460655 129.739258,51.607105 126.295341,55.061440 
	C122.393700,59.300728 118.492058,63.540016 114.078247,68.170319 
	C110.404854,72.179596 106.731468,76.188873 102.500999,80.535370 
	C96.085495,87.088028 89.669983,93.640694 82.523918,100.939522 
	C90.531677,100.939522 97.264267,100.939522 104.904213,101.116852 
M74.846939,69.200333 
	C71.309654,65.429237 67.772362,61.658134 63.938438,57.266052 
	C59.375053,49.199677 51.989365,50.738499 44.753071,51.270916 
	C44.753071,68.035339 44.753071,84.428406 44.753071,100.950981 
	C51.061363,100.950981 57.030293,100.950981 63.906429,101.128029 
	C67.603157,101.067772 71.299889,101.007515 75.677895,100.923195 
	C80.722008,96.385452 85.766129,91.847702 91.178986,86.978241 
	C85.036186,80.436539 80.053421,75.130196 74.846939,69.200333 
M138.470032,216.602051 
	C140.514862,217.726334 142.559692,218.850632 144.991669,220.187790 
	C144.991669,186.351898 144.991669,153.413712 144.991669,120.475510 
	C144.746918,120.405190 144.502167,120.334862 144.257401,120.264542 
	C141.521027,128.182022 138.784637,136.099518 135.540634,144.521240 
	C133.787125,149.278732 132.039291,154.038345 130.278992,158.793335 
	C125.358116,172.085709 120.542900,185.418976 115.436172,198.639603 
	C114.023186,202.297623 114.616570,204.275040 118.217049,205.987930 
	C124.899025,209.166763 131.389420,212.748337 138.470032,216.602051 
M198.943771,61.202957 
	C206.706131,56.534317 214.468475,51.865681 222.771530,46.871830 
	C217.620697,43.869637 213.681915,42.730598 209.986771,47.698807 
	C208.223145,50.070045 205.775665,51.942707 203.583405,53.982601 
	C200.780991,56.590267 197.923492,59.138744 195.089737,61.712734 
	C195.331665,62.038162 195.573593,62.363590 195.815506,62.689022 
	C196.654068,62.299065 197.492615,61.909107 198.943771,61.202957 
M32.195972,60.722187 
	C29.541872,63.205521 26.887774,65.688850 23.868671,68.513702 
	C29.624063,68.513702 34.467136,68.513702 39.308270,68.513702 
	C39.308270,63.775982 39.308270,59.415344 39.308270,54.059582 
	C36.675892,56.513195 34.687298,58.366741 32.195972,60.722187 
z"/>
<path fill="#4077BC" opacity="1.000000" stroke="none" 
	d="
M137.959579,216.162216 
	C131.389420,212.748337 124.899025,209.166763 118.217049,205.987930 
	C114.616570,204.275040 114.023186,202.297623 115.436172,198.639603 
	C120.542900,185.418976 125.358116,172.085709 130.278992,158.793335 
	C132.039291,154.038345 133.787125,149.278732 136.187592,144.359528 
	C137.223022,145.706039 137.945847,147.213364 137.949814,148.722595 
	C138.008957,171.202316 137.973038,193.682297 137.959579,216.162216 
z"/>
<path fill="#394E97" opacity="1.000000" stroke="none" 
	d="
M62.999218,100.950981 
	C57.030293,100.950981 51.061363,100.950981 44.753071,100.950981 
	C44.753071,84.428406 44.753071,68.035339 44.753071,51.270916 
	C51.989365,50.738499 59.375053,49.199677 63.751736,57.851120 
	C63.376652,60.215664 63.031906,61.994534 63.025036,63.774708 
	C62.977200,76.166649 62.999443,88.558861 62.999218,100.950981 
z"/>
<path fill="#3F70B6" opacity="1.000000" stroke="none" 
	d="
M114.007950,106.842148 
	C118.688202,106.776558 123.368454,106.710968 128.521896,107.202911 
	C129.000793,117.565010 128.936462,127.370522 129.068375,137.173370 
	C129.096420,139.258163 129.839294,141.333344 130.252853,143.412949 
	C126.150169,155.192551 122.047493,166.972153 117.944817,178.751755 
	C117.369461,179.167892 116.794106,179.584045 116.218758,180.000183 
	C114.966652,178.167923 113.714554,176.335663 112.556808,173.989594 
	C113.100784,171.243622 113.929123,169.013397 113.940781,166.778946 
	C114.044998,146.800430 114.005295,126.821182 114.007950,106.842148 
z"/>
<path fill="#3C68AF" opacity="1.000000" stroke="none" 
	d="
M113.554733,106.746094 
	C114.005295,126.821182 114.044998,146.800430 113.940781,166.778946 
	C113.929123,169.013397 113.100784,171.243622 112.359268,173.721741 
	C108.432289,170.254913 104.797218,166.542130 101.199265,162.129028 
	C101.490913,159.483994 101.959023,157.540085 101.966316,155.594467 
	C102.027245,139.343750 102.003403,123.092743 102.005127,106.841820 
	C105.703926,106.777885 109.402725,106.713959 113.554733,106.746094 
z"/>
<path fill="#4888C9" opacity="1.000000" stroke="none" 
	d="
M162.412262,86.216011 
	C158.661301,89.836235 154.910339,93.456451 150.440063,97.770912 
	C150.440063,75.016205 150.440063,53.401180 150.440063,31.193792 
	C153.631027,31.193792 156.861160,31.193792 160.545273,31.727997 
	C160.999512,48.421173 160.954880,64.580444 161.062103,80.738708 
	C161.074234,82.567383 161.941513,84.390381 162.412262,86.216011 
z"/>
<path fill="#3B62A9" opacity="1.000000" stroke="none" 
	d="
M101.550407,106.741119 
	C102.003403,123.092743 102.027245,139.343750 101.966316,155.594467 
	C101.959023,157.540085 101.490913,159.483994 101.064178,161.828735 
	C96.557396,157.763702 92.222832,153.298630 88.095688,148.261047 
	C88.535500,145.929749 88.960121,144.171921 88.969261,142.411957 
	C89.030861,130.553574 89.004372,118.694710 89.006409,106.835999 
	C93.036171,106.770798 97.065926,106.705605 101.550407,106.741119 
z"/>
<path fill="#437DC1" opacity="1.000000" stroke="none" 
	d="
M138.214813,216.382141 
	C137.973038,193.682297 138.008957,171.202316 137.949814,148.722595 
	C137.945847,147.213364 137.223022,145.706039 136.441406,144.107422 
	C138.784637,136.099518 141.521027,128.182022 144.257401,120.264542 
	C144.502167,120.334862 144.746918,120.405190 144.991669,120.475510 
	C144.991669,153.413712 144.991669,186.351898 144.991669,220.187790 
	C142.559692,218.850632 140.514862,217.726334 138.214813,216.382141 
z"/>
<path fill="#4071B7" opacity="1.000000" stroke="none" 
	d="
M127.998077,100.945061 
	C124.300026,101.003181 120.601974,101.061302 116.451202,100.566383 
	C115.998863,90.916153 116.068741,81.817955 115.936127,72.722702 
	C115.912010,71.068726 115.060158,69.426804 114.590416,67.779312 
	C118.492058,63.540016 122.393700,59.300728 126.669525,55.339401 
	C127.362457,57.734623 127.943245,59.850174 127.957108,61.969429 
	C128.042084,74.960838 127.998703,87.953087 127.998077,100.945061 
z"/>
<path fill="#437DC1" opacity="1.000000" stroke="none" 
	d="
M136.024750,45.055458 
	C138.672119,41.993748 141.319504,38.932037 144.815109,34.889336 
	C144.815109,57.752640 144.815109,79.156403 144.815109,101.115570 
	C142.424149,101.115570 140.161362,101.115570 137.449051,100.566719 
	C136.999908,83.789360 137.035370,67.560677 136.957428,51.332542 
	C136.947372,49.238735 136.350037,47.147751 136.024750,45.055458 
z"/>
<path fill="#4077BC" opacity="1.000000" stroke="none" 
	d="
M135.717346,45.184830 
	C136.350037,47.147751 136.947372,49.238735 136.957428,51.332542 
	C137.035370,67.560677 136.999908,83.789360 136.998627,100.482750 
	C134.293701,101.003181 131.589691,101.058731 128.441864,101.029671 
	C127.998703,87.953087 128.042084,74.960838 127.957108,61.969429 
	C127.943245,59.850174 127.362457,57.734623 126.973816,55.185455 
	C129.739258,51.607105 132.574600,48.460655 135.717346,45.184830 
z"/>
<path fill="#395BA3" opacity="1.000000" stroke="none" 
	d="
M88.551994,106.733284 
	C89.004372,118.694710 89.030861,130.553574 88.969261,142.411957 
	C88.960121,144.171921 88.535500,145.929749 87.942001,147.956406 
	C83.355629,143.767380 79.130363,139.310486 75.109467,134.273331 
	C75.545540,124.741478 75.777237,115.789909 76.008934,106.838333 
	C80.038483,106.769081 84.068031,106.699821 88.551994,106.733284 
z"/>
<path fill="#458ACC" opacity="1.000000" stroke="none" 
	d="
M162.690186,86.056839 
	C161.941513,84.390381 161.074234,82.567383 161.062103,80.738708 
	C160.954880,64.580444 160.999512,48.421173 160.997498,31.820374 
	C163.381882,31.478174 165.768051,31.577797 168.606903,32.152901 
	C169.350647,36.473518 169.835754,40.315601 169.896240,44.164360 
	C170.075882,55.594131 170.088348,67.026527 170.166183,78.457893 
	C167.766815,80.937820 165.367462,83.417740 162.690186,86.056839 
z"/>
<path fill="#36529B" opacity="1.000000" stroke="none" 
	d="
M63.452824,101.039505 
	C62.999443,88.558861 62.977200,76.166649 63.025036,63.774708 
	C63.031906,61.994534 63.376652,60.215664 63.900055,58.161613 
	C67.772362,61.658134 71.309654,65.429237 74.925812,69.946991 
	C75.001984,80.778191 74.999298,90.862717 74.996613,100.947250 
	C71.299889,101.007515 67.603157,101.067772 63.452824,101.039505 
z"/>
<path fill="#4A91D1" opacity="1.000000" stroke="none" 
	d="
M170.474823,78.297882 
	C170.088348,67.026527 170.075882,55.594131 169.896240,44.164360 
	C169.835754,40.315601 169.350647,36.473518 169.010895,32.228489 
	C171.704483,31.851496 174.446777,31.874397 177.594543,32.437466 
	C178.000000,43.686794 177.947205,54.396492 178.054901,65.104576 
	C178.071747,66.778618 178.818863,68.445320 179.228302,70.115417 
	C176.413345,72.789566 173.598404,75.463715 170.474823,78.297882 
z"/>
<path fill="#4794D5" opacity="1.000000" stroke="none" 
	d="
M179.521194,69.969048 
	C178.818863,68.445320 178.071747,66.778618 178.054901,65.104576 
	C177.947205,54.396492 178.000000,43.686794 178.000000,32.512558 
	C181.033691,32.079430 184.067398,32.111374 187.545197,32.706429 
	C187.993088,40.592262 187.912949,47.916721 188.064194,55.236393 
	C188.098694,56.906113 188.932510,58.559311 189.398438,60.220116 
	C186.203644,63.420971 183.008865,66.621826 179.521194,69.969048 
z"/>
<path fill="#3C68AF" opacity="1.000000" stroke="none" 
	d="
M114.334335,67.974815 
	C115.060158,69.426804 115.912010,71.068726 115.936127,72.722702 
	C116.068741,81.817955 115.998863,90.916153 115.997383,100.477951 
	C112.298935,101.000648 108.601570,101.058754 104.451271,100.564117 
	C103.684906,93.406975 103.371490,86.802559 103.058075,80.198151 
	C106.731468,76.188873 110.404854,72.179596 114.334335,67.974815 
z"/>
<path fill="#5181C0" opacity="1.000000" stroke="none" 
	d="
M130.526093,143.174759 
	C129.839294,141.333344 129.096420,139.258163 129.068375,137.173370 
	C128.936462,127.370522 129.000793,117.565010 128.981384,107.276611 
	C133.733383,106.581215 138.499084,106.369652 144.385498,106.108345 
	C139.655731,118.929398 135.227539,130.932983 130.526093,143.174759 
z"/>
<path fill="#4C9CDB" opacity="1.000000" stroke="none" 
	d="
M189.691116,60.088509 
	C188.932510,58.559311 188.098694,56.906113 188.064194,55.236393 
	C187.912949,47.916721 187.993088,40.592262 187.982849,32.829208 
	C192.032501,32.491894 196.088623,32.594906 200.575470,33.247471 
	C201.418411,38.569138 201.830597,43.341255 202.242798,48.113373 
	C198.156464,52.061218 194.070129,56.009060 189.691116,60.088509 
z"/>
<path fill="#395BA3" opacity="1.000000" stroke="none" 
	d="
M75.337250,100.935226 
	C74.999298,90.862717 75.001984,80.778191 75.037666,70.258751 
	C80.053421,75.130196 85.036186,80.436539 91.178986,86.978241 
	C85.766129,91.847702 80.722008,96.385452 75.337250,100.935226 
z"/>
<path fill="#3B62A9" opacity="1.000000" stroke="none" 
	d="
M102.779541,80.366760 
	C103.371490,86.802559 103.684906,93.406975 103.997589,100.475449 
	C97.264267,100.939522 90.531677,100.939522 82.523918,100.939522 
	C89.669983,93.640694 96.085495,87.088028 102.779541,80.366760 
z"/>
<path fill="#36529B" opacity="1.000000" stroke="none" 
	d="
M75.563652,106.733543 
	C75.777237,115.789909 75.545540,124.741478 74.959244,133.968109 
	C71.452408,131.097290 68.300179,127.951401 65.067963,124.057503 
	C65.325012,117.818771 65.662056,112.328049 65.999092,106.837326 
	C69.038849,106.767799 72.078613,106.698273 75.563652,106.733543 
z"/>
<path fill="#394E97" opacity="1.000000" stroke="none" 
	d="
M65.542389,106.725288 
	C65.662056,112.328049 65.325012,117.818771 64.961128,123.744339 
	C59.188614,119.144089 53.442947,114.108994 47.697277,109.073898 
	C48.178493,108.253677 48.659706,107.433464 49.140919,106.613251 
	C54.455845,106.613251 59.770767,106.613251 65.542389,106.725288 
z"/>
<path fill="#5EADE6" opacity="1.000000" stroke="none" 
	d="
M198.637482,61.361053 
	C197.492615,61.909107 196.654068,62.299065 195.815506,62.689022 
	C195.573593,62.363590 195.331665,62.038162 195.089737,61.712734 
	C197.923492,59.138744 200.780991,56.590267 203.583405,53.982601 
	C205.775665,51.942707 208.223145,50.070045 209.986771,47.698807 
	C213.681915,42.730598 217.620697,43.869637 222.771530,46.871830 
	C214.468475,51.865681 206.706131,56.534317 198.637482,61.361053 
z"/>
<path fill="#51A4E1" opacity="1.000000" stroke="none" 
	d="
M202.534973,47.966225 
	C201.830597,43.341255 201.418411,38.569138 201.010483,33.316734 
	C206.152512,32.836449 211.290253,32.836449 216.428009,32.836449 
	C216.679138,33.213238 216.930252,33.590027 217.181381,33.966820 
	C212.396637,38.584236 207.611877,43.201653 202.534973,47.966225 
z"/>
<path fill="#394E97" opacity="1.000000" stroke="none" 
	d="
M32.447338,60.471237 
	C34.687298,58.366741 36.675892,56.513195 39.308270,54.059582 
	C39.308270,59.415344 39.308270,63.775982 39.308270,68.513702 
	C34.467136,68.513702 29.624063,68.513702 23.868671,68.513702 
	C26.887774,65.688850 29.541872,63.205521 32.447338,60.471237 
z"/>
</svg>